<svg width="24" height="24" viewBox="0 0 24 24" fill="none" xmlns="http://www.w3.org/2000/svg">
<path fill-rule="evenodd" clip-rule="evenodd" d="M8.737 7.00001C9.097 4.99501 10.513 3.65001 12 3.65001C13.487 3.65001 14.903 4.99501 15.263 7.00001H8.737ZM7.424 7.00001C7.804 4.45001 9.61 2.35001 12 2.35001C14.39 2.35001 16.196 4.45001 16.576 7.00001H18C18.2652 7.00001 18.5196 7.10536 18.7071 7.2929C18.8946 7.48044 19 7.73479 19 8.00001V18C19 18.2652 18.8946 18.5196 18.7071 18.7071C18.5196 18.8946 18.2652 19 18 19H6C5.73478 19 5.48043 18.8946 5.29289 18.7071C5.10536 18.5196 5 18.2652 5 18V8.00001C5 7.73479 5.10536 7.48044 5.29289 7.2929C5.48043 7.10536 5.73478 7.00001 6 7.00001H7.424ZM6.3 17.7V8.30001H17.7V17.7H6.3Z" fill="black"/>
</svg>
