<svg width="24" height="24" viewBox="0 0 24 24" fill="none" xmlns="http://www.w3.org/2000/svg">
<path d="M15.464 4.85C14.8146 4.8454 14.1713 4.97583 13.575 5.23302C12.9787 5.49021 12.4423 5.86854 12 6.344L11.9 6.457C11.4739 5.99036 10.9539 5.61926 10.3741 5.36813C9.79423 5.117 9.16779 4.99154 8.53598 5V4.85H8.53498C5.94998 4.85 3.84998 6.908 3.84998 9.453C3.84998 10.549 4.34398 11.687 5.06998 12.771C5.79798 13.856 6.76798 14.901 7.74398 15.816C8.8927 16.8856 10.1172 17.8709 11.408 18.764C11.632 18.918 11.788 19.018 11.844 19.049C11.9274 19.102 12.0242 19.1302 12.123 19.1302C12.2218 19.1302 12.3186 19.102 12.402 19.049C12.457 19.019 12.61 18.918 12.828 18.765C14.0832 17.8784 15.2708 16.8997 16.381 15.837C17.326 14.927 18.265 13.882 18.969 12.794C19.672 11.707 20.15 10.562 20.15 9.453C20.15 6.908 18.05 4.851 15.464 4.85ZM8.53698 5.945H8.53898C9.13038 5.93566 9.71457 6.07576 10.2374 6.3523C10.7603 6.62885 11.2049 7.03289 11.53 7.527L11.535 7.534C11.6256 7.65576 11.7603 7.73715 11.9103 7.76071C12.0602 7.78427 12.2134 7.74811 12.337 7.66C12.386 7.625 12.4292 7.58248 12.465 7.534L12.469 7.528C13.549 5.907 15.767 5.45 17.422 6.512C17.917 6.82661 18.3247 7.26091 18.6075 7.77477C18.8903 8.28862 19.0391 8.86547 19.04 9.452C19.04 10.277 18.688 11.182 18.123 12.095C17.56 13.007 16.795 13.912 15.99 14.735C14.44 16.315 12.76 17.571 12.123 17.951C11.48 17.561 9.73898 16.294 8.13098 14.711C7.29498 13.886 6.49898 12.981 5.91398 12.073C5.32598 11.163 4.95998 10.265 4.95998 9.453C4.95998 7.518 6.55898 5.945 8.53698 5.945Z" fill="black"/>
<path d="M15.464 4.85C14.8146 4.8454 14.1713 4.97583 13.575 5.23302C12.9787 5.49021 12.4423 5.86854 12 6.344L11.9 6.457C11.4739 5.99036 10.9539 5.61926 10.3741 5.36813C9.79423 5.117 9.16779 4.99154 8.53598 5V4.85H8.53498C5.94998 4.85 3.84998 6.908 3.84998 9.453C3.84998 10.549 4.34398 11.687 5.06998 12.771C5.79798 13.856 6.76798 14.901 7.74398 15.816C8.8927 16.8856 10.1172 17.8709 11.408 18.764C11.632 18.918 11.788 19.018 11.844 19.049C11.9274 19.102 12.0242 19.1302 12.123 19.1302C12.2218 19.1302 12.3186 19.102 12.402 19.049C12.457 19.019 12.61 18.918 12.828 18.765C14.0832 17.8784 15.2708 16.8997 16.381 15.837C17.326 14.927 18.265 13.882 18.969 12.794C19.672 11.707 20.15 10.562 20.15 9.453C20.15 6.908 18.05 4.851 15.464 4.85ZM15.464 4.85V5M8.53698 5.945H8.53898C9.13038 5.93566 9.71457 6.07576 10.2374 6.3523C10.7603 6.62885 11.2049 7.03289 11.53 7.527L11.535 7.534C11.6256 7.65576 11.7603 7.73715 11.9103 7.76071C12.0602 7.78427 12.2134 7.74811 12.337 7.66C12.386 7.625 12.4292 7.58248 12.465 7.534L12.469 7.528C13.549 5.907 15.767 5.45 17.422 6.512C17.917 6.82661 18.3247 7.26091 18.6075 7.77477C18.8903 8.28862 19.0391 8.86547 19.04 9.452C19.04 10.277 18.688 11.182 18.123 12.095C17.56 13.007 16.795 13.912 15.99 14.735C14.44 16.315 12.76 17.571 12.123 17.951C11.48 17.561 9.73898 16.294 8.13098 14.711C7.29498 13.886 6.49898 12.981 5.91398 12.073C5.32598 11.163 4.95998 10.265 4.95998 9.453C4.95998 7.518 6.55898 5.945 8.53698 5.945Z" stroke="black" stroke-width="0.3"/>
</svg>
