<svg width="40" height="40" viewBox="0 0 40 40" fill="none" xmlns="http://www.w3.org/2000/svg">
<path d="M9.41406 0.0231476C7 0.28096 4.78906 1.35909 3.04688 3.12471C1.49219 4.69502 0.601563 6.35909 0.140625 8.56221C0.0078125 9.1794 0 9.93721 0 19.9685C0 29.9997 0.0078125 30.7575 0.140625 31.3747C0.609375 33.5856 1.5 35.2497 3.04688 36.8122C4.61719 38.3981 6.32813 39.32 8.55469 39.7888C9.17188 39.9216 9.92969 39.9294 19.9609 39.9294C31.9609 39.9294 31.1641 39.9606 32.8672 39.3747C34.4063 38.8435 35.5703 38.1091 36.8047 36.8825C38.3828 35.3278 39.3125 33.6013 39.7813 31.3747C39.9141 30.7575 39.9219 29.9997 39.9219 19.9685C39.9219 8.0544 39.9531 8.84346 39.4063 7.18721C38.8906 5.60127 38.1094 4.3669 36.8359 3.09346C35.2891 1.54659 33.7422 0.695023 31.5625 0.179398C30.8672 0.0153351 30.7578 0.0153351 20.2734 -0.000289917C14.4531 -0.000289917 9.5625 0.00752258 9.41406 0.0231476ZM27.6563 7.21846C30.1719 7.92159 32.0469 9.81221 32.7109 12.3122L32.8906 12.9763V19.9685V26.9606L32.7109 27.6247C32.0469 30.1481 30.1406 32.0544 27.6172 32.7185L26.9531 32.8981H19.9609C13.5469 32.8981 12.9219 32.8903 12.4375 32.7575C9.83594 32.0935 7.89063 30.1794 7.21094 27.6247L7.03125 26.9606V19.9685V12.9763L7.21094 12.3122C7.92188 9.62471 10.0781 7.60909 12.7578 7.1169C13.25 7.03096 14.6094 7.01534 20.1953 7.02315C27.0234 7.03877 27.0313 7.03877 27.6563 7.21846Z" fill="#9D9D9D"/>
<path d="M12.8672 9.49969C12.0156 9.72626 11.4062 10.0778 10.7422 10.7497C10.0625 11.4216 9.71875 12.0231 9.49219 12.9059C9.34375 13.4841 9.33594 13.7888 9.33594 19.9684C9.33594 26.1481 9.34375 26.4528 9.49219 27.0309C9.71875 27.9138 10.0625 28.5153 10.7422 29.1872C11.4141 29.8669 12.0156 30.2106 12.8984 30.4372C13.4766 30.5856 13.7812 30.5934 19.9609 30.5934C26.1406 30.5934 26.4453 30.5856 27.0234 30.4372C27.9062 30.2106 28.5078 29.8669 29.1797 29.1872C29.8594 28.5153 30.2031 27.9138 30.4297 27.0309C30.5781 26.4528 30.5859 26.1481 30.5859 19.9684C30.5859 13.7888 30.5781 13.4841 30.4297 12.9059C30.2031 12.0231 29.8594 11.4216 29.1797 10.7497C28.5078 10.07 27.9062 9.72626 27.0234 9.49969C26.4453 9.35126 26.1484 9.34344 19.9297 9.35126C13.7969 9.35126 13.4062 9.35907 12.8672 9.49969ZM27.2266 12.2341C27.5781 12.4138 27.8516 12.8591 27.8516 13.2497C27.8516 13.6403 27.5781 14.0856 27.2266 14.2653C27.0625 14.3513 26.8125 14.4216 26.6797 14.4216C26.2891 14.4216 25.8438 14.1481 25.6641 13.7966C25.3672 13.2184 25.5391 12.6013 26.1016 12.2653C26.4766 12.0388 26.8203 12.0309 27.2266 12.2341ZM21.1094 14.2341C22.2812 14.4763 23.2578 15.0075 24.0938 15.8513C24.8594 16.6325 25.3594 17.4841 25.6406 18.5153C25.8203 19.1716 25.8203 20.7653 25.6406 21.4216C25.0391 23.6091 23.2969 25.2497 21.1172 25.7028C17.0625 26.5388 13.3906 22.8747 14.2266 18.8122C14.875 15.6559 17.9844 13.5856 21.1094 14.2341Z" fill="#9D9D9D"/>
<path d="M19.1406 16.5622C18.4922 16.7184 18 16.9997 17.4922 17.4997C16.1094 18.8903 16.1094 21.0544 17.4922 22.4294C18.8906 23.82 21.0469 23.82 22.4219 22.4372C23.8125 21.0388 23.8125 18.8903 22.4297 17.4997C21.5391 16.6091 20.3438 16.2653 19.1406 16.5622Z" fill="#9D9D9D"/>
</svg>
