<svg width="40" height="40" viewBox="0 0 40 40" fill="none" xmlns="http://www.w3.org/2000/svg">
<g clip-path="url(#clip0_38_1267)">
<path d="M9.45312 0.0548859C7.03906 0.312698 4.82812 1.39082 3.08594 3.15645C1.53125 4.72676 0.640625 6.39082 0.179688 8.59395C0.046875 9.21114 0.0390625 9.96895 0.0390625 20.0002C0.0390625 30.0314 0.046875 30.7893 0.179688 31.4064C0.648438 33.6174 1.53906 35.2814 3.08594 36.8439C4.65625 38.4299 6.36719 39.3518 8.59375 39.8205C9.21094 39.9533 9.96875 39.9611 20 39.9611C32 39.9611 31.2031 39.9924 32.9062 39.4064C34.4453 38.8752 35.6094 38.1408 36.8438 36.9143C38.4219 35.3596 39.3516 33.633 39.8203 31.4064C39.9531 30.7893 39.9609 30.0314 39.9609 20.0002C39.9609 8.08614 39.9922 8.8752 39.4453 7.21895C38.9297 5.63301 38.1484 4.39864 36.875 3.1252C35.3281 1.57832 33.7812 0.726761 31.6016 0.211136C30.9062 0.0470734 30.7969 0.0470734 20.3125 0.0314484C14.4922 0.0314484 9.60156 0.0392609 9.45312 0.0548859ZM27.6953 7.2502C30.2109 7.95332 32.0859 9.84395 32.75 12.3439L32.9297 13.008V20.0002V26.9924L32.75 27.6564C32.0859 30.1799 30.1797 32.0861 27.6562 32.7502L26.9922 32.9299H20C13.5859 32.9299 12.9609 32.9221 12.4766 32.7893C9.875 32.1252 7.92969 30.2111 7.25 27.6564L7.07031 26.9924V20.0002V13.008L7.25 12.3439C7.96094 9.65645 10.1172 7.64082 12.7969 7.14864C13.2891 7.0627 14.6484 7.04707 20.2344 7.05489C27.0625 7.07051 27.0703 7.07051 27.6953 7.2502Z" fill="black"/>
<path d="M12.9062 9.53125C12.0547 9.75781 11.4453 10.1094 10.7812 10.7812C10.1016 11.4531 9.75781 12.0547 9.53125 12.9375C9.38281 13.5156 9.375 13.8203 9.375 20C9.375 26.1797 9.38281 26.4844 9.53125 27.0625C9.75781 27.9453 10.1016 28.5469 10.7812 29.2187C11.4531 29.8984 12.0547 30.2422 12.9375 30.4687C13.5156 30.6172 13.8203 30.625 20 30.625C26.1797 30.625 26.4844 30.6172 27.0625 30.4687C27.9453 30.2422 28.5469 29.8984 29.2188 29.2187C29.8984 28.5469 30.2422 27.9453 30.4688 27.0625C30.6172 26.4844 30.625 26.1797 30.625 20C30.625 13.8203 30.6172 13.5156 30.4688 12.9375C30.2422 12.0547 29.8984 11.4531 29.2188 10.7812C28.5469 10.1016 27.9453 9.75781 27.0625 9.53125C26.4844 9.38281 26.1875 9.375 19.9688 9.38281C13.8359 9.38281 13.4453 9.39062 12.9062 9.53125ZM27.2656 12.2656C27.6172 12.4453 27.8906 12.8906 27.8906 13.2812C27.8906 13.6719 27.6172 14.1172 27.2656 14.2969C27.1016 14.3828 26.8516 14.4531 26.7188 14.4531C26.3281 14.4531 25.8828 14.1797 25.7031 13.8281C25.4062 13.25 25.5781 12.6328 26.1406 12.2969C26.5156 12.0703 26.8594 12.0625 27.2656 12.2656ZM21.1484 14.2656C22.3203 14.5078 23.2969 15.0391 24.1328 15.8828C24.8984 16.6641 25.3984 17.5156 25.6797 18.5469C25.8594 19.2031 25.8594 20.7969 25.6797 21.4531C25.0781 23.6406 23.3359 25.2812 21.1562 25.7344C17.1016 26.5703 13.4297 22.9062 14.2656 18.8437C14.9141 15.6875 18.0234 13.6172 21.1484 14.2656Z" fill="black"/>
<path d="M19.1797 16.5937C18.5312 16.75 18.0391 17.0312 17.5312 17.5312C16.1484 18.9219 16.1484 21.0859 17.5312 22.4609C18.9297 23.8516 21.0859 23.8516 22.4609 22.4687C23.8516 21.0703 23.8516 18.9219 22.4688 17.5312C21.5781 16.6406 20.3828 16.2969 19.1797 16.5937Z" fill="black"/>
</g>
<defs>
<clipPath id="clip0_38_1267">
<rect width="40" height="40" fill="white"/>
</clipPath>
</defs>
</svg>
