<svg width="111" height="67" viewBox="0 0 111 67" fill="none" xmlns="http://www.w3.org/2000/svg">
<path d="M6.98269 2.76373C3.47743 3.65706 2.11427 8.09581 4.67367 10.4129C5.20224 10.8875 5.20224 10.9154 4.1451 11.9483C2.4481 13.6791 2.39246 16.1358 4.06164 18.1179C5.95337 20.3791 11.1834 20.6025 13.6872 18.4808C15.8571 16.6383 15.8015 12.8416 13.6037 11.5296L12.797 11.055L13.4646 10.3291C14.4383 9.29623 14.7443 8.54248 14.7443 7.25831C14.7443 4.57831 12.7692 2.79164 9.62555 2.62414C8.7075 2.56831 7.51126 2.65206 6.98269 2.76373ZM10.8496 5.86248C11.2113 6.22539 11.406 6.78373 11.406 7.53748C11.406 9.07289 10.6827 9.77081 9.04134 9.77081C7.4278 9.77081 6.67667 9.07289 6.67667 7.59331C6.67667 7.03498 6.78795 6.42081 6.89923 6.25331C7.59472 5.22039 9.95938 4.96914 10.8496 5.86248ZM11.0443 13.0091C11.406 13.2325 11.7398 13.8187 11.8511 14.3771C12.1849 16.2196 10.6827 17.5037 8.54058 17.2246C6.62104 16.9733 5.78645 15.5775 6.50976 13.8466C7.12179 12.3391 9.37517 11.9483 11.0443 13.0091Z" fill="white"/>
<path d="M92.9173 5.30414V8.06789L91.9436 7.50956C90.7752 6.81164 88.3827 6.72789 87.2143 7.34206C85.1 8.43081 84.015 10.6083 84.015 13.6512C84.015 15.8008 84.627 17.3362 85.9067 18.5646C87.6037 20.1837 89.5789 20.4629 91.6098 19.43L92.9173 18.7879V19.43C92.9173 20.0441 93.0285 20.1 94.4473 20.1H95.9774V11.3062V2.51248H94.4473H92.9173V5.30414ZM91.9992 10.385C93.3902 11.7808 93.3067 15.2146 91.8323 16.5266C89.1616 18.9275 86.018 15.3821 87.3812 11.4737C88.0488 9.54748 90.5804 8.96123 91.9992 10.385Z" fill="white"/>
<path d="M24.1196 7.00705C21.4489 7.4258 19.8632 9.1008 20.1414 11.2504C20.3639 13.1487 21.4489 13.9304 24.8707 14.6283C26.0948 14.8796 27.2354 15.2146 27.4579 15.3821C28.07 15.9125 27.8752 16.7221 26.985 17.1687C25.8166 17.7829 24.4812 17.6991 22.9233 16.8896C22.1722 16.4987 21.5324 16.1916 21.5324 16.1916C21.5045 16.1916 21.0594 16.5546 20.503 17.0012C19.5572 17.755 19.5294 17.8108 19.9745 18.2296C21.894 19.9883 26.5399 20.5466 28.8489 19.3183C30.3512 18.5366 30.9354 17.6433 31.1023 15.9125C31.2136 14.6283 31.1579 14.4608 30.2677 13.5675C29.5722 12.8696 28.9324 12.5346 27.6805 12.2833C23.9248 11.5016 23.5075 11.3341 23.4241 10.5804C23.2294 8.87747 26.5677 8.7658 28.3203 10.4129L28.9324 10.9991L29.906 10.05C30.7963 9.18455 30.8519 9.07289 30.4346 8.5983C29.2662 7.31414 26.5399 6.64414 24.1196 7.00705Z" fill="white"/>
<path d="M37.1391 6.97917C33.8008 7.48167 31.7699 10.3292 32.0481 14.07C32.1316 15.0192 32.382 16.1638 32.6323 16.6383C34.1902 19.6813 38.1406 20.8817 41.7015 19.3742C42.6196 18.9833 44.5113 17.42 44.5113 17.0292C44.5113 16.9454 43.9549 16.5825 43.2872 16.2196L42.0632 15.5496L41.2008 16.2754C40.1993 17.1129 38.8361 17.4479 37.612 17.1688C36.694 16.9733 35.4978 15.8288 35.2196 14.8796L35.0248 14.2375L39.6985 14.1817L44.3722 14.0979L44.2887 12.7021C44.1775 10.6363 42.9812 8.375 41.5902 7.64917C40.3105 6.95125 38.7526 6.72792 37.1391 6.97917ZM39.5872 9.57542C40.4218 9.93833 41.4511 11.2783 41.1173 11.5854C41.0338 11.6692 39.615 11.6971 37.9737 11.6692L34.9692 11.5854L35.7481 10.6642C36.9722 9.2125 38.0015 8.93333 39.5872 9.57542Z" fill="white"/>
<path d="M50.5481 7.00705C48.5173 7.31414 47.0985 8.40289 46.2639 10.2175C45.6797 11.5296 45.5684 12.0879 45.6797 13.9583C45.7632 15.8566 45.8744 16.3033 46.5977 17.3641C49.185 21.0212 54.9158 20.8258 56.891 17.0291C57.2526 16.3033 57.2526 16.2196 56.6684 15.8566C54.9714 14.74 54.8602 14.74 54.3872 15.6333C53.9421 16.5266 52.6902 17.3083 51.7444 17.3083C50.715 17.3083 49.491 16.4708 49.0737 15.4937C48.6008 14.3491 48.5729 12.4787 48.9902 11.6412C50.2421 9.21247 52.4955 8.84955 54.1647 10.8316L54.7767 11.5575L55.8895 11.0271C56.5293 10.7479 57.0301 10.4129 57.0301 10.2454C57.0301 9.57539 55.7782 8.03997 54.8323 7.56539C53.5526 6.9233 52.2173 6.7558 50.5481 7.00705Z" fill="white"/>
<path d="M63.0669 7.00707C60.0624 7.48165 58.1429 9.93832 58.1429 13.2604C58.1429 16.1637 59.2 18.2296 61.1474 19.2346C64.5136 20.9375 68.5196 19.7929 70.1887 16.6662C71.0233 15.0471 71.0233 11.8087 70.1609 10.1617C68.8812 7.64915 66.2662 6.47665 63.0669 7.00707ZM65.8211 9.93832C68.297 11.1108 68.3248 15.6333 65.8767 16.9175C63.6512 18.0621 61.203 16.2475 61.203 13.4C61.203 11.9204 61.8429 10.72 62.9557 10.05C64.0406 9.37999 64.597 9.35207 65.8211 9.93832Z" fill="white"/>
<path d="M101.541 6.97915C99.0098 7.31415 97.3684 8.87748 97.3684 10.9154C97.3684 12.0042 98.0917 13.1767 99.121 13.735C99.4549 13.9025 100.846 14.3212 102.209 14.6283C105.214 15.3262 105.714 15.8567 104.49 16.9454C103.739 17.5875 103.489 17.6433 102.126 17.5037C101.207 17.3921 100.289 17.1129 99.7887 16.75L99.0098 16.1358L97.897 16.9175C96.8677 17.6154 96.8398 17.6992 97.2571 18.1737C98.815 19.9046 103.572 20.5187 106.076 19.2904C107.745 18.4808 108.635 16.9454 108.413 15.2704C108.135 13.2883 107.133 12.6742 102.598 11.7529C100.762 11.3621 100.234 10.9154 100.679 10.0779C101.319 8.87748 104.657 9.10082 105.547 10.385L105.965 10.9712L106.966 10.2175C108.135 9.29623 108.19 8.93332 107.189 8.20748C105.659 7.09082 103.739 6.67207 101.541 6.97915Z" fill="white"/>
<path d="M76.003 7.53747C74.918 8.20747 74.8346 8.20747 74.8346 7.67706C74.8346 7.36998 74.5007 7.25831 73.4436 7.25831H72.0526V13.6791V20.1H73.4436H74.8346V16.5266C74.8346 14.5725 74.9737 12.5066 75.1128 11.9483C75.697 9.88247 78.1173 9.01706 79.2579 10.4966C79.7864 11.1666 79.8421 11.6133 79.8421 15.6612V20.1H81.4H82.9579L82.8466 14.8516C82.7353 9.07289 82.5128 8.20747 80.9549 7.39789C79.7586 6.78372 77.1436 6.83956 76.003 7.53747Z" fill="white"/>
<path d="M5.9534 25.0971C3.2549 26.3254 2.44813 30.0383 4.45114 32.0483L5.25791 32.8579L4.47896 33.4442C1.9752 35.2867 2.39249 39.2787 5.23009 40.9817C6.39851 41.6517 6.8158 41.7354 9.04137 41.7354C11.2948 41.7354 11.6842 41.6517 12.8805 40.9537C15.7181 39.2787 16.1354 35.3146 13.6594 33.4721L12.8248 32.8579L13.4647 32.3554C14.4105 31.6017 14.8278 30.3454 14.6887 28.7262C14.5218 26.9954 13.8263 26.0183 12.2406 25.1808C10.6549 24.3712 7.62257 24.3433 5.9534 25.0971ZM10.9331 27.8608C11.2391 28.14 11.406 28.6983 11.406 29.4521C11.406 30.9875 10.6827 31.6854 9.04137 31.6854C7.40001 31.6854 6.67671 30.9875 6.67671 29.4521C6.67671 28.6983 6.84362 28.14 7.17746 27.8329C8.03986 27.0512 10.0151 27.0792 10.9331 27.8608ZM11.1835 35.175C11.9068 35.9287 12.0181 36.18 11.879 37.0733C11.6286 38.4971 10.8218 39.0833 9.12483 39.0833C7.37219 39.0833 6.78798 38.7762 6.39851 37.5479C5.8143 35.7333 7.06618 34.3375 9.26392 34.3375C10.0985 34.3375 10.5436 34.5329 11.1835 35.175Z" fill="white"/>
<path d="M31.9925 33.2208V41.5958H33.2444H34.4963V33.2208V24.8458H33.2444H31.9925V33.2208Z" fill="white"/>
<path d="M47.2932 27.0792V29.3125H45.6519H43.9827L44.2609 28.4192C44.4 27.9167 44.5113 27.0792 44.5113 26.6046V25.6833H40.6166H36.7218V26.8V27.9167H39.2534C41.5068 27.9167 41.7572 27.9725 41.6737 28.3912C41.5902 28.8379 41.2008 28.8937 38.7248 28.9775C35.915 29.0612 35.8594 29.0612 36.0263 29.6754C36.1376 30.0104 36.2767 30.5129 36.3602 30.82C36.4993 31.2946 36.694 31.3225 38.2797 31.1829C39.2534 31.0712 40.0602 31.0992 40.0602 31.2108C40.0602 31.5737 38.5023 32.6346 37 33.3325L35.6647 33.9467L36.2211 34.84C36.5271 35.3425 37 35.7333 37.2504 35.7333C37.9181 35.7333 40.8391 33.7792 41.8963 32.6346C42.397 32.1042 43.0369 31.1829 43.3707 30.5687L43.9549 29.4521V30.5129V31.5458H45.6241H47.2932V34.3375V37.1292H48.5451H49.797V30.9875V24.8458H48.5451H47.2932V27.0792Z" fill="white"/>
<path d="M28.3759 27.6375V30.15H27.4022C26.4564 30.15 26.4286 30.1779 26.4286 31.2667C26.4286 32.3554 26.4564 32.3833 27.4022 32.3833H28.3759V34.2537V36.1242L27.5135 35.2867C25.9 33.7512 25.4827 32.5787 25.3714 29.0892L25.2601 25.9625H24.0639H22.8955L22.7007 28.6704C22.4504 31.8529 21.7827 33.8071 20.4195 35.2867L19.418 36.3754L20.3083 37.2408L21.1707 38.1062L22.1165 36.9896C22.6451 36.3754 23.2293 35.5379 23.3962 35.0912C23.7857 34.17 24.0917 34.1142 24.3421 34.9237C24.4534 35.2587 25.0654 36.0962 25.6774 36.7662L26.818 38.0225L27.597 37.0733L28.3481 36.1521L28.3759 38.7204V41.3167H29.6278H30.8797V33.2208V25.125H29.6278H28.3759V27.6375Z" fill="white"/>
<path d="M52.579 27.3583V28.475H54.9436C56.2512 28.475 57.3083 28.5587 57.3083 28.6704C57.3083 29.0892 56.3068 30.4012 55.5835 30.9875C54.9158 31.49 53.3301 32.2717 51.967 32.7462C51.494 32.9137 51.5218 32.9975 52.0504 33.9187C52.7181 35.0354 52.8294 35.0354 55.2775 33.8629C56.0564 33.4721 57.1692 32.6904 57.7256 32.1042L58.7549 31.0433L59.6173 32.0204C60.4519 32.9696 62.5384 34.1979 64.0406 34.6446C64.7083 34.8121 64.8752 34.7283 65.376 33.9467C66.0436 32.8021 66.0715 32.6625 65.4594 32.6625C63.985 32.6346 61.2865 30.7921 60.4797 29.2287L60.0624 28.475H62.4549H64.8196V27.3583V26.2417H58.6993H52.579V27.3583Z" fill="white"/>
<path d="M38.1128 38.525V41.3167H44.094H50.0752V40.2V39.0833H45.3459H40.6166V37.4083V35.7333H39.3647H38.1128V38.525Z" fill="white"/>
<path d="M51.1045 37.0454C50.9932 37.1291 50.9098 37.6316 50.9098 38.1621V39.0833H58.6993H66.4887V37.9666V36.85H58.894C54.6932 36.85 51.188 36.9337 51.1045 37.0454Z" fill="white"/>
<path d="M24.6481 46.3975C23.9248 46.8162 21.4489 47.4583 20.5308 47.4583H19.8075L20.2248 48.5471C20.6143 49.58 20.6978 49.6358 21.588 49.4962C22.506 49.3566 22.5338 49.3846 22.5338 50.2221C22.5338 51.0875 22.506 51.0875 21.1429 51.0875H19.7519V52.2321V53.4046L20.8369 53.2091C21.4489 53.1254 22.0053 53.1533 22.0887 53.265C22.2835 53.5721 21.3376 55.5821 20.3361 57.0616L19.4737 58.29L20.0023 59.4346C20.5587 60.7466 20.6143 60.7187 21.8105 58.625L22.5338 57.3687V60.7746V64.2083H23.6466H24.7316L24.815 60.4954L24.8985 56.8104L25.3993 57.7316C25.9 58.6529 25.9278 58.6529 26.4842 58.1504C27.8474 56.95 29.4331 53.2371 29.8782 50.3616C30.0173 49.3287 29.9617 49.1891 29.4053 49.0216C28.0699 48.6587 27.903 48.7983 27.7083 50.2779C27.4857 51.9808 26.7902 54.1583 26.3173 54.6608C26.0391 54.94 25.8444 54.8841 25.3436 54.3258C24.5647 53.4883 24.7872 53.0137 25.8722 53.2371C26.679 53.3766 26.7068 53.3766 26.7068 52.2321C26.7068 51.1154 26.679 51.0875 25.7331 51.0875C24.7872 51.0875 24.7594 51.0596 24.7594 49.9429C24.7594 48.91 24.8429 48.7983 25.8166 48.3796C27.1797 47.8212 27.1241 47.905 26.4286 46.9279C25.7887 46.0066 25.4827 45.895 24.6481 46.3975Z" fill="white"/>
<path d="M7.1218 46.6487C3.44962 47.5141 2.05865 51.8691 4.67368 54.2421C5.25789 54.7725 5.25789 54.7725 4.31203 55.5821C1.86391 57.7596 2.53158 61.5283 5.64737 63.1196C8.03985 64.3479 11.5729 64.0687 13.4925 62.4775C15.885 60.4954 15.9128 57.1454 13.5481 55.3866L12.8526 54.8562L13.6872 53.9629C14.2714 53.3487 14.5774 52.7346 14.6609 51.8412C14.9669 49.2171 13.4925 47.2071 10.8496 46.6487C9.20827 46.2858 8.62406 46.2858 7.1218 46.6487ZM10.6827 49.7196C11.2669 50.1662 11.406 50.5291 11.406 51.5062C11.406 53.0137 10.7105 53.6 8.98571 53.6C7.42782 53.6 6.67669 52.8741 6.67669 51.3946C6.67669 50.0546 7.65038 49.1333 9.04135 49.1333C9.5421 49.1333 10.2654 49.3846 10.6827 49.7196ZM10.8774 56.7546C12.1571 57.7316 12.2684 59.2112 11.1556 60.3279C10.0707 61.3887 8.20677 61.4725 7.06616 60.4675C5.9812 59.5462 5.9812 57.9829 7.06616 57.0616C7.90075 56.3079 10.0707 56.1404 10.8774 56.7546Z" fill="white"/>
<path d="M30.8797 52.2041V58.0666H31.5752C32.521 58.0666 32.4376 58.4575 31.3804 59.295C30.2955 60.1046 27.0406 61.6958 26.4007 61.6958C25.6496 61.6958 25.594 62.0029 26.1504 63.1196L26.7068 64.1804L28.2368 63.65C30.5737 62.8404 33.4391 60.8304 34.7188 59.1275C36.1098 57.285 36.5271 56.4475 36.3601 55.9729C36.2767 55.7775 36.4992 55.4704 36.8887 55.275C37.2504 55.0516 37.5564 54.6608 37.5564 54.3816C37.5564 53.6279 35.8594 48.575 35.609 48.575C35.4977 48.575 35.0248 48.7146 34.5797 48.8541L33.7451 49.1612L34.4962 51.4504C34.9135 52.7066 35.3308 54.1025 35.4421 54.5212C35.609 55.2191 35.5812 55.275 35.0804 55.0237C34.6353 54.7725 34.4962 54.8283 34.2737 55.4983C34.1068 55.9171 33.8007 56.5033 33.5504 56.8104C33.1331 57.3129 33.1053 56.95 33.1609 51.8412L33.2444 46.3416H32.0759H30.8797V52.2041Z" fill="white"/>
</svg>
