<svg width="140" height="29" viewBox="0 0 140 29" fill="none" xmlns="http://www.w3.org/2000/svg">
<path d="M8.76307 3.80842C4.36406 4.92649 2.65334 10.4819 5.86531 13.3819C6.52865 13.9759 6.52865 14.0108 5.20197 15.3036C3.07229 17.4699 3.00247 20.5446 5.09723 23.0253C7.4713 25.8554 14.0349 26.1349 17.177 23.4795C19.9002 21.1735 19.8304 16.4217 17.0723 14.7795L16.0598 14.1855L16.8977 13.2771C18.1197 11.9843 18.5037 11.041 18.5037 9.43372C18.5037 6.07951 16.0249 3.84336 12.0798 3.63372C10.9277 3.56384 9.42641 3.66866 8.76307 3.80842ZM13.6159 7.68674C14.0698 8.14095 14.3142 8.83975 14.3142 9.78312C14.3142 11.7048 13.4065 12.5783 11.3466 12.5783C9.32167 12.5783 8.37903 11.7048 8.37903 9.853C8.37903 9.15421 8.51868 8.38553 8.65833 8.17589C9.53115 6.88312 12.4987 6.56866 13.6159 7.68674ZM13.8603 16.6313C14.3142 16.9108 14.7331 17.6446 14.8728 18.3434C15.2917 20.6494 13.4065 22.2566 10.7182 21.9072C8.3092 21.5928 7.26182 19.8458 8.16955 17.6795C8.93763 15.7928 11.7656 15.3036 13.8603 16.6313Z" fill="#C70125"/>
<path d="M116.608 6.98794V10.447L115.387 9.74818C113.92 8.87469 110.918 8.76987 109.451 9.53854C106.798 10.9012 105.436 13.6265 105.436 17.4349C105.436 20.1253 106.204 22.047 107.81 23.5843C109.94 25.6108 112.419 25.9602 114.968 24.6675L116.608 23.8638V24.6675C116.608 25.4361 116.748 25.506 118.529 25.506H120.449V14.5V3.49396H118.529H116.608V6.98794ZM115.456 13.347C117.202 15.094 117.097 19.3916 115.247 21.0337C111.895 24.0385 107.95 19.6012 109.661 14.7096C110.499 12.2988 113.676 11.565 115.456 13.347Z" fill="#C70125"/>
<path d="M30.2693 9.11927C26.9177 9.64337 24.9277 11.7398 25.2768 14.4301C25.5561 16.806 26.9177 17.7843 31.2119 18.6578C32.7481 18.9723 34.1795 19.3916 34.4588 19.6012C35.2269 20.2651 34.9825 21.2783 33.8653 21.8373C32.399 22.606 30.7232 22.5012 28.7681 21.4879C27.8254 20.9988 27.0224 20.6145 27.0224 20.6145C26.9875 20.6145 26.4289 21.0687 25.7306 21.6277C24.5436 22.5711 24.5087 22.641 25.0673 23.1651C27.4763 25.3663 33.3067 26.0651 36.2045 24.5277C38.0897 23.5494 38.8229 22.4313 39.0324 20.2651C39.172 18.6578 39.1022 18.4482 37.985 17.3301C37.1122 16.4566 36.3092 16.0373 34.7381 15.7229C30.0249 14.7446 29.5012 14.5349 29.3965 13.5916C29.1521 11.4602 33.3416 11.3205 35.5411 13.3819L36.3092 14.1157L37.5311 12.9277C38.6484 11.8446 38.7182 11.7048 38.1945 11.1108C36.7282 9.50361 33.3067 8.66506 30.2693 9.11927Z" fill="#C70125"/>
<path d="M46.6085 9.08431C42.419 9.71322 39.8703 13.2771 40.2195 17.959C40.3242 19.147 40.6384 20.5795 40.9526 21.1735C42.9077 24.9819 47.8653 26.4843 52.3342 24.5976C53.4863 24.1084 55.8603 22.1518 55.8603 21.6626C55.8603 21.5578 55.1621 21.1036 54.3242 20.6494L52.788 19.8108L51.7057 20.7192C50.4489 21.7674 48.7382 22.1867 47.202 21.8373C46.0499 21.5927 44.5486 20.1602 44.1995 18.9723L43.9551 18.1686L49.8204 18.0988L55.6858 17.9939L55.581 16.247C55.4414 13.6614 53.9401 10.8313 52.1945 9.92286C50.5885 9.04937 48.6334 8.76985 46.6085 9.08431ZM49.6808 12.3337C50.7282 12.7879 52.0199 14.465 51.601 14.8494C51.4963 14.9542 49.7157 14.9891 47.6559 14.9542L43.8853 14.8494L44.8628 13.6964C46.399 11.8795 47.6908 11.5301 49.6808 12.3337Z" fill="#C70125"/>
<path d="M63.4364 9.11928C60.8878 9.50362 59.1072 10.8663 58.0598 13.1374C57.3267 14.7795 57.187 15.4783 57.3267 17.8193C57.4314 20.1952 57.571 20.7542 58.4788 22.0819C61.7257 26.659 68.9177 26.4145 71.3965 21.6627C71.8503 20.7542 71.8503 20.6494 71.1172 20.1952C68.9875 18.7976 68.8479 18.7976 68.2543 19.9157C67.6957 21.0337 66.1247 22.012 64.9376 22.012C63.6459 22.012 62.1097 20.9639 61.586 19.741C60.9925 18.3084 60.9576 15.9675 61.4813 14.9193C63.0523 11.8795 65.8803 11.4253 67.975 13.906L68.7431 14.8145L70.1396 14.1506C70.9426 13.8012 71.571 13.3819 71.571 13.1723C71.571 12.3337 70 10.412 68.8129 9.81807C67.207 9.01446 65.5311 8.80482 63.4364 9.11928Z" fill="#C70125"/>
<path d="M79.1471 9.11926C75.3765 9.71324 72.9675 12.7879 72.9675 16.9458C72.9675 20.5795 74.2942 23.165 76.7381 24.4229C80.9625 26.5542 85.99 25.1217 88.0847 21.2084C89.1321 19.1819 89.1321 15.1289 88.0498 13.0675C86.4438 9.92288 83.162 8.45541 79.1471 9.11926ZM82.6034 12.7879C85.7107 14.2554 85.7456 19.9156 82.6733 21.5229C79.8802 22.9554 76.8079 20.6843 76.8079 17.1205C76.8079 15.2687 77.6109 13.7663 79.0074 12.9277C80.369 12.0891 81.0673 12.0542 82.6034 12.7879Z" fill="#C70125"/>
<path d="M127.431 9.08434C124.254 9.50361 122.194 11.4602 122.194 14.0108C122.194 15.3735 123.102 16.841 124.394 17.5398C124.813 17.7494 126.559 18.2735 128.269 18.6578C132.04 19.5313 132.668 20.1952 131.132 21.5578C130.189 22.3614 129.875 22.4313 128.165 22.2566C127.012 22.1169 125.86 21.7675 125.232 21.3133L124.254 20.5446L122.858 21.5229C121.566 22.3964 121.531 22.5012 122.055 23.0952C124.01 25.2614 129.98 26.0301 133.122 24.4928C135.217 23.4795 136.334 21.5578 136.055 19.4614C135.706 16.9807 134.449 16.212 128.758 15.059C126.454 14.5699 125.79 14.0108 126.349 12.9627C127.152 11.4602 131.342 11.7398 132.459 13.347L132.982 14.0807L134.239 13.1373C135.706 11.9843 135.776 11.5301 134.519 10.6217C132.598 9.2241 130.189 8.7 127.431 9.08434Z" fill="#C70125"/>
<path d="M95.3815 9.78312C94.0199 10.6217 93.9152 10.6217 93.9152 9.95782C93.9152 9.57348 93.4962 9.43372 92.1695 9.43372H90.4239V17.4699V25.506H92.1695H93.9152V21.0337C93.9152 18.5879 94.0897 16.0024 94.2643 15.3036C94.9975 12.7181 98.0349 11.6349 99.4663 13.4867C100.13 14.3253 100.199 14.8843 100.199 19.9506V25.506H102.155H104.11L103.97 18.9723C103.83 11.7048 103.551 10.6217 101.596 9.60842C100.095 8.83974 96.8129 8.90962 95.3815 9.78312Z" fill="#C70125"/>
</svg>
