<svg width="16" height="16" viewBox="0 0 16 16" fill="none" xmlns="http://www.w3.org/2000/svg">
<path fill-rule="evenodd" clip-rule="evenodd" d="M9.49799 10.502C8.48603 11.2603 7.22434 11.607 5.96699 11.4722C4.70965 11.3375 3.55006 10.7314 2.72173 9.77591C1.89341 8.82043 1.45788 7.58658 1.50287 6.32284C1.54785 5.0591 2.07 3.85934 2.96417 2.96518C3.85833 2.07101 5.05809 1.54886 6.32183 1.50387C7.58557 1.45889 8.81942 1.89441 9.7749 2.72274C10.7304 3.55106 11.3365 4.71066 11.4712 5.968C11.606 7.22534 11.2593 8.48704 10.501 9.49899L9.49799 10.5V10.502ZM10.535 11.596C9.23451 12.6259 7.58945 13.1197 5.93676 12.9761C4.28406 12.8324 2.74882 12.0624 1.64549 10.8235C0.542156 9.58472 -0.0457575 7.97091 0.0021662 6.31269C0.0500899 4.65446 0.730224 3.0773 1.90326 1.90427C3.07629 0.731231 4.65345 0.051097 6.31168 0.00317328C7.96991 -0.0447504 9.58371 0.543164 10.8225 1.64649C12.0614 2.74983 12.8314 4.28507 12.9751 5.93776C13.1187 7.59046 12.6249 9.23552 11.595 10.536L15.03 13.97C15.1037 14.0387 15.1628 14.1215 15.2038 14.2135C15.2448 14.3055 15.2668 14.4048 15.2686 14.5055C15.2704 14.6062 15.2518 14.7062 15.2141 14.7996C15.1764 14.893 15.1202 14.9778 15.049 15.049C14.9778 15.1203 14.893 15.1764 14.7996 15.2141C14.7062 15.2518 14.6062 15.2704 14.5055 15.2686C14.4048 15.2668 14.3054 15.2448 14.2134 15.2038C14.1214 15.1628 14.0386 15.1037 13.97 15.03L10.535 11.596Z" fill="black"/>
</svg>
